<?xml version="1.0" encoding="utf-8"?>
<!-- Generator: Adobe Illustrator 16.0.0, SVG Export Plug-In . SVG Version: 6.00 Build 0)  -->
<!DOCTYPE svg PUBLIC "-//W3C//DTD SVG 1.1//EN" "http://www.w3.org/Graphics/SVG/1.1/DTD/svg11.dtd">
<svg version="1.1" id="primary_logo_small" xmlns="http://www.w3.org/2000/svg" xmlns:xlink="http://www.w3.org/1999/xlink" x="0px"
	 y="0px" width="179px" height="70px" viewBox="0 0 179 70" enable-background="new 0 0 179 70" xml:space="preserve">
<g>
	<path id="element" fill="#00B388" d="M0.617,0.327v15.861l0,0h55.218V0.327H0.617z M52.384,12.737H4.068V3.778h48.316V12.737z"/>
	<path d="M10.668,49.173v1.93H2.825v4.849h7.132v1.878H2.825v5.279h7.843v1.929H0.617V49.173H10.668z M16.123,65.037h-2.157V53.361
		h2.03v2.184c0.837-1.473,2.183-2.438,3.909-2.438c2.716,0,4.315,1.776,4.315,4.442v7.487h-2.158V57.6
		c0-1.547-0.812-2.462-2.614-2.462c-1.548,0-2.868,1.041-3.325,2.438V65.037z M33.051,65.291c-2.919,0-4.086-1.271-4.086-3.579
		v-6.446h-2.462v-1.904h2.462v-3.02h2.157v3.02h3.325v1.904h-3.325v6.244c0,1.396,0.787,1.775,2.133,1.775
		c0.354,0,0.71-0.049,1.015-0.152h0.177v1.904C34.117,65.163,33.659,65.291,33.051,65.291z M42.541,65.291
		c-3.883,0-6.345-2.284-6.345-5.965c0-3.655,2.285-6.219,5.635-6.219c3.451,0,5.203,2.312,5.203,5.737v1.143H38.43
		c0.305,2.282,1.929,3.35,4.137,3.35c1.371,0,2.412-0.229,3.427-0.964h0.228v1.853C45.182,65.012,43.836,65.291,42.541,65.291z
		 M38.456,58.285h6.472c-0.077-2.131-1.193-3.273-3.071-3.273S38.735,56.383,38.456,58.285z M56.474,55.569
		c-0.305-0.15-0.762-0.254-1.243-0.254c-1.372,0-2.463,0.967-2.919,2.538v7.184h-2.157V53.361h2.03v2.514
		c0.686-1.904,1.929-2.691,3.325-2.691c0.507,0,0.964,0.077,1.142,0.178v2.208H56.474z M60.965,63.133v6.193h-2.157V53.361h2.03
		v2.006c0.686-1.194,2.03-2.26,3.832-2.26c3.528,0,5.381,2.792,5.381,5.965c0,3.249-1.854,6.091-5.381,6.091
		C62.996,65.163,61.676,64.25,60.965,63.133z M67.843,59.072c0-2.36-1.319-3.935-3.68-3.935c-1.395,0-2.512,0.737-3.197,2.006v4.011
		c0.686,1.243,1.802,2.005,3.197,2.005C66.523,63.159,67.843,61.534,67.843,59.072z M79.619,55.569
		c-0.305-0.15-0.762-0.254-1.244-0.254c-1.371,0-2.462,0.967-2.918,2.538v7.184h-2.157V53.361h2.03v2.514
		c0.685-1.904,1.929-2.691,3.324-2.691c0.508,0,0.965,0.077,1.143,0.178v2.208H79.619z M83.297,52.194
		c-0.813,0-1.548-0.686-1.548-1.523c0-0.837,0.735-1.498,1.548-1.498c0.837,0,1.548,0.661,1.548,1.498
		C84.845,51.509,84.135,52.194,83.297,52.194z M84.363,65.037h-2.157V53.361h2.157V65.037z M87.865,62.27h0.204
		c0.964,0.787,2.386,1.193,3.73,1.193c1.269,0,2.386-0.481,2.386-1.521c0-1.041-0.939-1.271-2.791-1.878
		c-1.65-0.56-3.504-1.144-3.504-3.352c0-2.31,1.878-3.604,4.291-3.604c1.37,0,2.589,0.279,3.603,0.965v1.98h-0.228
		c-0.914-0.686-2.005-1.117-3.351-1.117c-1.37,0-2.132,0.609-2.132,1.473c0,0.964,0.813,1.219,2.716,1.801
		c1.699,0.56,3.579,1.219,3.579,3.427c0,2.412-1.981,3.655-4.543,3.655c-1.549,0-3.097-0.38-3.96-1.065V62.27z M105.147,65.291
		c-3.883,0-6.345-2.284-6.345-5.965c0-3.655,2.284-6.219,5.635-6.219c3.453,0,5.204,2.312,5.204,5.737v1.143h-8.605
		c0.305,2.282,1.929,3.35,4.139,3.35c1.369,0,2.41-0.229,3.426-0.964h0.228v1.853C107.787,65.012,106.442,65.291,105.147,65.291z
		 M101.063,58.285h6.473c-0.076-2.131-1.193-3.273-3.071-3.273C102.585,55.012,101.341,56.383,101.063,58.285z M13.942,26.543
		v15.863H10.49v-6.574H4.068v6.574H0.617V26.543h3.451v6.269h6.421v-6.269H13.942z M23.306,42.686c-4.366,0-6.701-2.361-6.701-6.168
		c0-3.807,2.436-6.32,5.964-6.32c3.807,0,5.711,2.386,5.711,5.965v1.344h-8.122c0.253,1.956,1.802,2.462,3.324,2.462
		c1.372,0,2.437-0.177,3.555-0.784h0.38v2.486C26.402,42.406,24.778,42.686,23.306,42.686z M20.133,35.325h4.747
		c-0.102-1.777-0.863-2.564-2.259-2.564C21.428,32.761,20.361,33.32,20.133,35.325z M32.339,42.406l-2.488-11.522v-0.406h3.198
		l1.346,7.259l0.33,2.334l0.457-2.334l1.624-7.259h3.63l1.6,7.259l0.482,2.334l0.381-2.334l1.345-7.259h3.046v0.406l-2.513,11.522
		h-4.417l-1.421-6.37l-0.406-2.386l-0.406,2.386l-1.396,6.37H32.339z M53.378,42.686c-2.538,0-3.807-1.167-3.807-3.884V26.543h3.452
		v12.03c0,0.838,0.355,1.117,1.167,1.117c0.254,0,0.661-0.076,0.914-0.151h0.051v2.867C54.774,42.534,54.038,42.686,53.378,42.686z
		 M62.87,42.686c-4.366,0-6.701-2.361-6.701-6.168c0-3.807,2.437-6.32,5.965-6.32c3.808,0,5.71,2.386,5.71,5.965v1.344h-8.122
		c0.254,1.956,1.802,2.462,3.325,2.462c1.37,0,2.437-0.177,3.553-0.784h0.381v2.486C65.965,42.406,64.341,42.686,62.87,42.686z
		 M59.696,35.325h4.746c-0.101-1.777-0.862-2.564-2.258-2.564C60.991,32.761,59.925,33.32,59.696,35.325z M79.542,38.066V33.32
		h-5.051v4.594c0,1.219,0.406,1.776,1.549,1.776c0.33,0,0.761-0.102,0.989-0.202h0.331v2.842c-0.458,0.152-1.143,0.355-2.158,0.355
		c-2.918,0-4.162-1.396-4.162-4.619V33.32h-2.056v-2.842h2.056v-2.894h3.452v2.894h5.051v-2.894h3.452v2.894h2.868v2.842h-2.868
		v4.594c0,1.219,0.406,1.776,1.548,1.776c0.33,0,0.762-0.102,0.99-0.202h0.33v2.842c-0.457,0.152-1.142,0.355-2.157,0.355
		C80.787,42.686,79.542,41.289,79.542,38.066z M96.011,37.507v4.899h-3.425V26.543h6.167c3.503,0,5.813,1.929,5.813,5.507
		c0,3.527-2.31,5.456-5.813,5.456H96.011z M98.475,29.462h-2.464v5.127h2.464c1.749,0,2.588-1.041,2.588-2.538
		C101.063,30.502,100.224,29.462,98.475,29.462z M113.345,40.63c-0.71,1.32-2.005,1.904-3.604,1.904
		c-2.208,0-4.036-1.271-4.036-3.631c0-2.359,1.599-3.73,4.62-3.73c0.989,0,1.979,0.101,2.919,0.279v-0.686
		c0-1.269-0.889-1.827-2.666-1.827c-1.32,0-2.411,0.279-3.324,0.735h-0.382v-2.589c0.915-0.481,2.539-0.888,4.112-0.888
		c3.732,0,5.661,1.701,5.661,4.645v7.563h-3.301V40.63z M113.244,38.676v-1.523c-0.585-0.177-1.345-0.228-1.956-0.228
		c-1.395,0-2.106,0.533-2.106,1.623c0,1.091,0.712,1.522,1.751,1.522C111.976,40.07,112.913,39.564,113.244,38.676z M119.18,36.468
		c0-3.858,2.716-6.27,6.246-6.27c1.445,0,2.563,0.331,3.323,0.838v2.995h-0.355c-0.735-0.558-1.547-0.812-2.588-0.812
		c-1.702,0-3.071,1.192-3.071,3.249c0,2.03,1.369,3.197,3.071,3.197c1.041,0,1.853-0.254,2.588-0.812h0.355v2.995
		c-0.761,0.506-1.878,0.837-3.323,0.837C121.896,42.686,119.18,40.3,119.18,36.468z M134.864,36.619v5.787h-3.451V26.543h3.451
		v9.035l0.812-1.217l3.173-3.883h3.655v0.406l-4.416,5l4.416,6.115v0.407h-3.883l-2.945-4.366L134.864,36.619z M150.953,40.63
		c-0.71,1.32-2.005,1.904-3.604,1.904c-2.208,0-4.036-1.271-4.036-3.631c0-2.359,1.599-3.73,4.62-3.73
		c0.989,0,1.979,0.101,2.919,0.279v-0.686c0-1.269-0.889-1.827-2.665-1.827c-1.319,0-2.412,0.279-3.324,0.735h-0.381v-2.589
		c0.913-0.481,2.537-0.888,4.11-0.888c3.732,0,5.661,1.701,5.661,4.645v7.563h-3.301V40.63z M150.853,38.676v-1.523
		c-0.585-0.177-1.345-0.228-1.954-0.228c-1.396,0-2.106,0.533-2.106,1.623c0,1.091,0.71,1.522,1.751,1.522
		S150.521,39.564,150.853,38.676z M160.698,32.889c0.636-1.777,1.98-2.539,3.35-2.539c0.459,0,0.839,0.127,0.991,0.203v3.274h-0.355
		c-0.354-0.177-0.71-0.28-1.193-0.28c-1.371,0-2.36,0.635-2.64,1.98v6.878h-3.451V30.478h3.299V32.889z M175.013,40.731
		c-0.787,1.243-2.032,1.954-3.579,1.954c-3.249,0-5.254-2.615-5.254-6.218c0-3.63,2.005-6.27,5.254-6.27
		c1.446,0,2.64,0.635,3.427,1.726v-5.38h3.451v15.863h-3.299V40.731z M174.86,38.523v-4.163c-0.635-0.914-1.498-1.346-2.487-1.346
		c-1.573,0-2.639,1.218-2.639,3.453c0,2.208,1.065,3.4,2.639,3.4C173.362,39.868,174.226,39.437,174.86,38.523z"/>
</g>
<rect id="_x3C_Slice_x3E_" fill="none" width="179" height="70"/>
</svg>
